# xmcd
#
# Track frame offsets:
#	150
#	13855
#	31662
#	40647
#	56418
#	67104
#	83830
#	101016
#	116355
#	128066
#	143763
#	159973
#	173487
#	186184
#	198411
#
# Disc length: 2825 seconds
#
# Revision: 1
# Processed by: cddbd v1.5.2PL0 Copyright (c) Steve Scherf et al.
# Submitted via: audiograbber 1.83.01
#
DISCID=ba0b070f
DTITLE=Sons Of The Desert - Piece Of Your Pie
DYEAR=2001
DGENRE=Blues
TTITLE0=Mama Let Me Lay It On You
TTITLE1=Knocking Myself Out
TTITLE2=Shake It Baby
TTITLE3=Chicken Ain't Nothin' But A Bird
TTITLE4=Hilo March
TTITLE5=Phonograph Blues
TTITLE6=Piece Of Your Pie
TTITLE7=Hula Blues
TTITLE8=I Let My Daddy Do That
TTITLE9=Hills Of Manchuria
TTITLE10=Sugar In My Bowl
TTITLE11=I'm Pau
TTITLE12=Any Kind Of Man
TTITLE13=Uhe Uhene
TTITLE14=Chasin' Rainbows
EXTD=
EXTT0=
EXTT1=
EXTT2=
EXTT3=
EXTT4=
EXTT5=
EXTT6=
EXTT7=
EXTT8=
EXTT9=
EXTT10=
EXTT11=
EXTT12=
EXTT13=
EXTT14=
PLAYORDER=
